<svg width="64" height="64" viewBox="0 0 64 64" fill="none" xmlns="http://www.w3.org/2000/svg">
<path d="M32.0002 5.33325C17.2802 5.33325 5.3335 17.2799 5.3335 31.9999C5.3335 46.7199 17.2802 58.6666 32.0002 58.6666C46.7202 58.6666 58.6668 46.7199 58.6668 31.9999C58.6668 17.2799 46.7202 5.33325 32.0002 5.33325ZM32.0002 13.3333C36.4268 13.3333 40.0002 16.9066 40.0002 21.3333C40.0002 25.7599 36.4268 29.3333 32.0002 29.3333C27.5735 29.3333 24.0002 25.7599 24.0002 21.3333C24.0002 16.9066 27.5735 13.3333 32.0002 13.3333ZM32.0002 51.1999C25.3335 51.1999 19.4402 47.7866 16.0002 42.6133C16.0802 37.3066 26.6668 34.3999 32.0002 34.3999C37.3068 34.3999 47.9202 37.3066 48.0002 42.6133C44.5602 47.7866 38.6668 51.1999 32.0002 51.1999Z" fill="#BFBFBF"/>
</svg>
